<svg width="18" height="20" viewBox="0 0 18 20" fill="none" xmlns="http://www.w3.org/2000/svg">
<path d="M14.0002 18.4369C14.0002 19.0903 13.4705 19.62 12.8171 19.62H1.18314C0.529748 19.62 0 19.0903 0 18.4369V3.41126C0 2.75787 0.529748 2.22827 1.18314 2.22827H12.8171C13.4705 2.22827 14.0002 2.75787 14.0002 3.41126V18.4369Z" fill="#AA8452"/>
<path d="M14.001 3.41126V18.4369C14.001 19.0904 13.4714 19.62 12.8179 19.62H11.6348C12.2883 19.62 12.8179 19.0904 12.8179 18.4369V3.41126C12.8179 2.75787 12.2883 2.22827 11.6348 2.22827H12.8179C13.4713 2.22827 14.001 2.75787 14.001 3.41126Z" fill="#7F5C3E"/>
<path d="M12.818 3.56897C12.818 3.46014 12.7297 3.37183 12.6207 3.37183H1.34182C1.23285 3.37183 1.14453 3.46014 1.14453 3.56897V18.2397C1.14453 18.3485 1.23285 18.4368 1.34182 18.4368H12.6209C12.7297 18.4368 12.818 18.3485 12.818 18.2397V3.56897Z" fill="white"/>
<path d="M8.67049 2.01122V0.59157C8.67049 0.264799 8.40554 0 8.07892 0H5.90978C5.58316 0 5.31836 0.264799 5.31836 0.59157V2.01122H8.67049Z" fill="#CCCCCC"/>
<path d="M8.67119 0.59157V2.01122H7.48805V0.59157C7.48805 0.264949 7.2234 0 6.89648 0H8.07962C8.40654 0 8.67119 0.264949 8.67119 0.59157Z" fill="#A0A0A0"/>
<path d="M4.01733 1.61694C3.79953 1.61694 3.62305 1.79358 3.62305 2.01122V3.9437C3.62305 4.1615 3.79953 4.33799 4.01733 4.33799H9.97239C10.1902 4.33799 10.3667 4.1615 10.3667 3.9437V2.01122C10.3667 1.79343 10.1902 1.61694 9.97239 1.61694H4.01733Z" fill="#E8E8E8"/>
<path d="M16.9903 5.41327L16.41 5.07827C16.2215 4.96944 15.9804 5.03396 15.8715 5.22257L15.3789 6.07594L15.7889 6.80523H16.6418L17.1346 5.9517C17.2434 5.76324 17.1789 5.52209 16.9903 5.41327Z" fill="#DB8733"/>
<path d="M15.1747 5.95766L16.8475 6.92345C17.036 7.03228 17.1005 7.27327 16.9917 7.46188L16.5975 8.14446L14.9748 7.96544L14.2422 6.78469L14.6363 6.10196C14.7453 5.91335 14.9863 5.84884 15.1747 5.95766Z" fill="#EDAF54"/>
<path d="M12.6757 14.9375H11.2099L10.3203 13.5777L14.2422 6.78467L16.5975 8.14444L12.6757 14.9375Z" fill="#FFD47D"/>
<path d="M11.858 16.0665L10.1575 16.8551C10.0324 16.9132 9.8879 16.8278 9.87802 16.6903L9.74615 14.8427C9.73492 14.6856 9.771 14.5288 9.84973 14.3924L10.3202 13.5776L12.6756 14.9374L12.209 15.7454C12.1278 15.8861 12.0052 15.9981 11.858 16.0665Z" fill="#EDAF54"/>
<path d="M2.95186 16.4782C2.88211 16.4782 2.8119 16.4535 2.75562 16.4035C2.63347 16.2949 2.6224 16.108 2.73092 15.986L3.39314 15.2402C3.48835 15.133 3.62516 15.0726 3.76871 15.0747C3.91212 15.0768 4.04728 15.141 4.13949 15.2509L4.59485 15.7939L5.13881 15.2034C5.23207 15.1021 5.36395 15.0444 5.50136 15.0444H5.5066C5.64581 15.0459 5.77858 15.1066 5.87079 15.211L6.54828 15.9779C6.65651 16.1003 6.64498 16.2871 6.52254 16.3954C6.40009 16.5034 6.21313 16.4919 6.10506 16.3695L5.49986 15.6845L4.9538 16.2773C4.85785 16.3816 4.72163 16.4389 4.57988 16.4361C4.43812 16.4328 4.3046 16.3686 4.21359 16.2601L3.75958 15.7185L3.1731 16.3788C3.11472 16.4446 3.03359 16.4782 2.95186 16.4782Z" fill="#515759"/>
<path d="M11.1861 6.72414H2.78602C2.62271 6.72414 2.49023 6.59181 2.49023 6.42835C2.49023 6.26504 2.62271 6.13257 2.78602 6.13257H11.1861C11.3496 6.13257 11.4819 6.26489 11.4819 6.42835C11.4819 6.59181 11.3496 6.72414 11.1861 6.72414Z" fill="#515759"/>
<path d="M6.33513 8.30168H2.82523C2.66177 8.30168 2.5293 8.16921 2.5293 8.00575C2.5293 7.84244 2.66177 7.70996 2.82523 7.70996H6.33513C6.49844 7.70996 6.63092 7.84244 6.63092 8.00575C6.63092 8.16921 6.49844 8.30168 6.33513 8.30168Z" fill="#515759"/>
<path d="M9.09599 8.30168H7.71571C7.5524 8.30168 7.41992 8.16921 7.41992 8.00575C7.41992 7.84244 7.5524 7.70996 7.71571 7.70996H9.09599C9.2593 7.70996 9.39177 7.84244 9.39177 8.00575C9.39177 8.16921 9.2593 8.30168 9.09599 8.30168Z" fill="#515759"/>
<path d="M5.66453 9.87917H2.82508C2.66162 9.87917 2.5293 9.74684 2.5293 9.58338C2.5293 9.41992 2.66162 9.2876 2.82508 9.2876H5.66453C5.82784 9.2876 5.96031 9.41992 5.96031 9.58338C5.96031 9.74684 5.82784 9.87917 5.66453 9.87917Z" fill="#515759"/>
<path d="M8.26741 9.87917H6.92664C6.76318 9.87917 6.63086 9.74684 6.63086 9.58338C6.63086 9.41992 6.76318 9.2876 6.92664 9.2876H8.26741C8.43087 9.2876 8.56319 9.41992 8.56319 9.58338C8.56319 9.74684 8.43072 9.87917 8.26741 9.87917Z" fill="#515759"/>
<path d="M4.87597 11.4567H2.82523C2.66177 11.4567 2.5293 11.3242 2.5293 11.1608C2.5293 10.9975 2.66177 10.865 2.82523 10.865H4.87597C5.03928 10.865 5.17175 10.9975 5.17175 11.1608C5.17175 11.3242 5.03928 11.4567 4.87597 11.4567Z" fill="#515759"/>
<path d="M8.2672 11.4567H6.13758C5.97427 11.4567 5.8418 11.3242 5.8418 11.1608C5.8418 10.9975 5.97427 10.865 6.13758 10.865H8.2672C8.43066 10.865 8.56299 10.9975 8.56299 11.1608C8.56299 11.3242 8.43051 11.4567 8.2672 11.4567Z" fill="#515759"/>
<path d="M4.87597 13.0342H2.82523C2.66177 13.0342 2.5293 12.9019 2.5293 12.7384C2.5293 12.5751 2.66177 12.4426 2.82523 12.4426H4.87597C5.03928 12.4426 5.17175 12.575 5.17175 12.7384C5.17175 12.9017 5.03928 13.0342 4.87597 13.0342Z" fill="#515759"/>
<path d="M10.3666 2.01122V3.9437C10.3666 4.16135 10.1898 4.33799 9.9722 4.33799H8.78906C9.00686 4.33799 9.18349 4.16135 9.18349 3.9437V2.01122C9.18349 1.79358 9.00686 1.61694 8.78906 1.61694H9.9722C10.1898 1.61694 10.3666 1.79358 10.3666 2.01122Z" fill="#CCCCCC"/>
<path d="M16.991 7.46164L16.5969 8.14422L15.5723 7.5528L15.9664 6.87007C16.0752 6.68146 16.0107 6.44061 15.8222 6.33179L16.8469 6.92336C17.0353 7.03218 17.0998 7.27303 16.991 7.46164Z" fill="#DB8733"/>
<path d="M11.6504 14.3461L15.5724 7.55322L16.597 8.14479L12.6749 14.9377L11.6504 14.3461Z" fill="#E89E46"/>
<path d="M12.6752 14.9375L12.2086 15.7457C12.1275 15.8859 12.0049 15.9982 11.8574 16.0666L10.1573 16.855C10.0323 16.9131 9.88739 16.8281 9.87751 16.6904L9.82422 15.9428L10.8328 15.475C10.9803 15.4066 11.1029 15.2944 11.184 15.1541L11.6504 14.3459L12.6752 14.9375Z" fill="#DB8733"/>
</svg>
