<svg width="26" height="22" viewBox="0 0 26 22" fill="none" xmlns="http://www.w3.org/2000/svg">
<path d="M21.5427 8.3894V14.8895C20.6122 15.635 19.6091 16.2427 18.5601 16.7129C18.2992 16.83 18.0355 16.9386 17.7693 17.0387C15.6898 17.8195 13.4632 18.0808 11.2856 17.8226C8.7899 17.5268 6.35888 16.549 4.28711 14.8895V8.3894L21.5427 8.3894Z" fill="#636363"/>
<path d="M8.51795 8.3894V17.2011C7.01511 16.6966 5.58125 15.9258 4.28711 14.8895V8.3894H8.51795Z" fill="#494949"/>
<path d="M18.5604 9.76608V16.7127C18.2994 16.8298 18.0358 16.9383 17.7695 17.0385V9.76608C17.7695 9.49866 17.9467 9.28149 18.165 9.28149C18.3832 9.28149 18.5604 9.49866 18.5604 9.76608Z" fill="#494949"/>
<path d="M21.5427 8.3894V8.91656L12.9149 12.2058L4.28711 8.91656V8.3894H21.5427Z" fill="#494949"/>
<path d="M25.83 4.94907V6.7546L12.915 11.6785L0 6.7546V4.94907L12.915 0.0251465L25.83 4.94907Z" fill="#636363"/>
<path d="M12.915 9.87334V11.6787L0 6.75475V4.94922L12.915 9.87334Z" fill="#494949"/>
<path d="M19.5503 19.2039C19.332 19.2039 19.155 19.0267 19.155 18.8084V7.59862L12.7519 4.69937C12.553 4.60931 12.4648 4.375 12.5548 4.17596C12.6449 3.97712 12.879 3.88883 13.0782 3.97889L19.7135 6.98338C19.855 7.04742 19.9456 7.18833 19.9456 7.34342V18.8084C19.9456 19.0267 19.7687 19.2039 19.5503 19.2039Z" fill="#FFD664"/>
<path d="M20.6574 19.9155C20.6574 20.5268 20.1618 21.0224 19.5505 21.0224C18.939 21.0224 18.4434 20.5268 18.4434 19.9155C18.4434 19.304 18.939 18.8083 19.5505 18.8083C20.1618 18.8083 20.6574 19.304 20.6574 19.9155Z" fill="#F7D360"/>
</svg>
