<svg width="19" height="25" viewBox="0 0 19 25" fill="none" xmlns="http://www.w3.org/2000/svg">
<path d="M12.0913 7.69897L4.8418 10.9856L10.7015 23.9069L13.8567 21.24L17.9321 20.6391L12.0913 7.69897Z" fill="#494949"/>
<path d="M6.72094 7.83057L13.9704 11.1172L8.11075 24.0573L4.95556 21.3716L0.861328 20.7707C0.86128 20.7707 6.72094 7.83057 6.72094 7.83057Z" fill="#636363"/>
<path d="M18.7966 9.40808C18.7966 10.103 17.8012 10.6852 17.651 11.3425C17.5007 12.0186 18.1581 12.9765 17.8763 13.5962C17.5758 14.216 16.4302 14.2911 16.017 14.817C15.6038 15.3429 15.7916 16.5073 15.2658 16.9393C14.7399 17.3713 13.6882 16.9205 13.0872 17.221C12.4862 17.5215 12.1669 18.6483 11.5096 18.7986C10.871 18.9489 10.101 18.0849 9.42489 18.0849C8.7488 18.0849 7.97876 18.9489 7.3402 18.7986C6.68285 18.6483 6.36359 17.5215 5.7626 17.221C5.16162 16.9205 4.09111 17.3713 3.58402 16.9393C3.05814 16.5073 3.24597 15.3429 2.83277 14.817C2.41957 14.2911 1.27396 14.216 0.973447 13.5962C0.691718 12.9953 1.34907 12.0187 1.19881 11.3425C1.01102 10.6852 0.015625 10.103 0.015625 9.40808C0.015625 8.7132 1.01102 8.13095 1.16128 7.47365C1.31154 6.79755 0.654189 5.83968 0.935918 5.21991C1.23644 4.60013 2.38204 4.52503 2.79524 3.99915C3.20844 3.47326 3.02061 2.30887 3.54649 1.87688C4.07237 1.44489 5.12409 1.89567 5.72507 1.59515C6.32606 1.29463 6.64532 0.16781 7.30267 0.0175513C7.94124 -0.132707 8.71122 0.731221 9.38736 0.731221C10.0635 0.731221 10.8335 -0.132707 11.4721 0.0175513C12.1294 0.16781 12.4487 1.29468 13.0497 1.59515C13.6506 1.89567 14.7211 1.44489 15.2282 1.87688C15.7541 2.30882 15.5663 3.47326 15.9795 3.99915C16.3927 4.52503 17.5383 4.60013 17.8388 5.21991C18.1205 5.8209 17.4632 6.7975 17.6134 7.47365C17.8012 8.131 18.7966 8.7132 18.7966 9.40808Z" fill="#FFD664"/>
<path fill-rule="evenodd" clip-rule="evenodd" d="M9.4057 2.64697C5.6683 2.64697 2.64453 5.6707 2.64453 9.40814C2.64453 13.1456 5.66826 16.1693 9.4057 16.1693C13.1431 16.1693 16.1668 13.1455 16.1668 9.40814C16.1668 5.67074 13.1431 2.64697 9.4057 2.64697ZM5.64951 9.40814C5.64951 7.34224 7.32101 5.65196 9.4057 5.65196C11.4903 5.65196 13.1619 7.34224 13.1619 9.40814C13.1619 11.474 11.4904 13.1643 9.4057 13.1643C7.33979 13.1643 5.64951 11.474 5.64951 9.40814ZM7.71542 9.40814C7.71542 10.3472 8.46666 11.0984 9.4057 11.0984C10.3447 11.0984 11.096 10.3472 11.096 9.40814C11.096 8.4691 10.3447 7.71786 9.4057 7.71786C8.46666 7.71786 7.71542 8.4691 7.71542 9.40814ZM3.7714 9.40814C3.7714 12.5258 6.28808 15.0424 9.4057 15.0424C12.5233 15.0424 15.04 12.5258 15.04 9.40814C15.04 6.29047 12.5234 3.77384 9.4057 3.77384C6.28803 3.77384 3.7714 6.29047 3.7714 9.40814Z" fill="#F9C646"/>
</svg>
